<svg xmlns="http://www.w3.org/2000/svg" xmlns:xlink="http://www.w3.org/1999/xlink" version="1.1" width="183px" height="84px" viewBox="-0.5 -0.5 183 84" style="background-color: rgb(0, 0, 0);"><defs/><rect fill="#000000" width="100%" height="100%" x="0" y="0"/><g><g><path d="M 0.4 39.23 L -0.14 36.23 L -0.42 34.81 L -0.43 34.37 L -0.33 33.94 L -0.14 33.55 L 0.15 33.21 L 0.5 32.96 L 0.91 32.79 L 1.35 32.73 L 1.78 32.77 L 2.2 32.92 L 2.57 33.16 L 2.87 33.49 L 3.08 33.87 L 3.19 34.3 L 3.4 39.61 L 3.61 47.55 L 3.81 57.28 L 4 67.02 L 4.2 74.88 L 4.34 79.39 L 4.53 81.3 L 4.49 81.68 L 4.37 82.03 L 4.16 82.34 L 3.89 82.6 L 3.56 82.79 L 3.19 82.88 L 2.81 82.9 L 2.45 82.82 L 2.11 82.65 L 1.82 82.41 L 1.6 82.1 L 1.46 81.75 L 1.4 81.38 L 1.37 77.85 L 1.45 73.05 L 1.39 66.44 L 1.25 58.73 L 1.06 50.72 L 1.28 42.64 L 2.26 35.63 L 4.2 30.13 L 7.53 26.67 L 11.41 26.85 L 14.68 30.63 L 16.33 36.9 L 16.52 43.83 L 15.39 50.22 L 13.71 55.06 L 11.59 58.03 L 8.23 58.21 L 7.18 53.43 L 10.02 50.23 L 14.38 48.75 L 19.35 49.47 L 23.86 52.9 L 25.84 58.34 L 25.34 64.24 L 23.24 69.47 L 20.03 73.48 L 16.3 75.96 L 12.78 77.13 L 6.41 76.84 L 5.9 76.63 L 5.48 76.27 L 5.2 75.79 L 5.09 75.25 L 5.16 74.71 L 5.4 74.21 L 5.78 73.82 L 6.27 73.57 L 6.81 73.48 L 7.35 73.58 L 7.84 73.84 L 8.21 74.25 L 8.43 74.75 L 8.49 75.29 L 8.36 75.83 L 8.07 76.3 L 7.65 76.65 L 7.14 76.85 L 6.59 76.87 L 6.06 76.72 L 5.61 76.4 L 5.28 75.96 L 5.11 75.44 L 5.12 74.89 L 5.3 74.37 L 5.64 73.93 L 6.1 73.64 L 6.63 73.49 L 7.18 73.53 L 7.18 73.53 L 11.92 74.04 L 14.75 73.4 L 17.86 71.64 L 20.6 68.38 L 22.36 63.94 L 22.8 59.26 L 21.58 55.35 L 18.56 53.01 L 15.3 52.37 L 11.16 54.13 L 12.68 49.74 L 13.68 43.91 L 13.45 37.63 L 12.12 32.45 L 8.56 28.96 L 6.59 31.08 L 4.85 36 L 3.94 42.7 L 3.78 50.64 L 4.06 58.66 L 4.32 66.38 L 4.55 73.06 L 4.62 77.86 L 4.53 81.3 L 4.49 81.68 L 4.37 82.03 L 4.16 82.34 L 3.89 82.6 L 3.56 82.79 L 3.19 82.88 L 2.82 82.9 L 2.45 82.82 L 2.11 82.65 L 1.82 82.41 L 1.6 82.1 L 1.46 81.75 L 1.4 81.38 L 1.5 79.46 L 1.42 74.98 L 1.1 67.1 L 0.76 57.37 L 0.35 47.7 L -0.15 39.76 L -0.42 34.81 L -0.43 34.37 L -0.33 33.94 L -0.14 33.55 L 0.15 33.21 L 0.5 32.96 L 0.91 32.79 L 1.35 32.73 L 1.78 32.77 L 2.2 32.92 L 2.57 33.16 L 2.87 33.49 L 3.08 33.87 L 3.19 34.3 L 3.27 35.74 L 3.6 38.77 L 3.61 39.16 L 3.53 39.54 L 3.35 39.89 L 3.1 40.19 L 2.78 40.42 L 2.42 40.57 L 2.03 40.62 L 1.64 40.58 L 1.28 40.45 L 0.95 40.24 L 0.69 39.95 L 0.5 39.61 L 0.4 39.23 L 0.4 39.23" fill="#ffffff" stroke="#ffffff" stroke-miterlimit="10" pointer-events="all"/></g><g><path d="M 51.65 9 L 51.54 17.05 L 51.46 26.94 L 51.54 38.31 L 51.71 48.89 L 51.91 57.56 L 52.13 63.38 L 52.4 65.71 L 52.37 66.07 L 52.25 66.4 L 52.07 66.7 L 51.81 66.94 L 51.5 67.12 L 51.16 67.23 L 50.81 67.24 L 50.46 67.16 L 50.14 67.02 L 49.86 66.79 L 49.65 66.51 L 49.51 66.18 L 49.45 65.83 L 49.82 60.11 L 50.13 53.56 L 50.14 43.78 L 49.87 34.02 L 49.48 23.99 L 49.47 14.2 L 50.35 7.17 L 52.37 1.17 L 56.56 0.23 L 60 4.66 L 62.11 13.06 L 62.67 23.59 L 61.13 32.14 L 58.65 37.69 L 54.94 40.38 L 53.05 35.85 L 55.1 32.54 L 59.31 30.46 L 64.64 30.79 L 69.92 33.9 L 74.01 39.73 L 75.87 46.8 L 75.43 54.07 L 72.8 60.57 L 68.38 64.87 L 63.3 66.78 L 58.5 66.54 L 55.25 63.77 L 55.03 59.79 L 57.83 55.58 L 62.12 52.17 L 66.26 49.59 L 70.05 47.57 L 70.53 47.41 L 71.02 47.41 L 71.49 47.57 L 71.89 47.87 L 72.16 48.29 L 72.29 48.77 L 72.26 49.27 L 72.07 49.73 L 71.75 50.11 L 71.32 50.35 L 70.83 50.46 L 70.34 50.4 L 69.89 50.19 L 69.53 49.84 L 69.3 49.4 L 69.23 48.91 L 69.31 48.42 L 69.55 47.99 L 69.91 47.65 L 70.36 47.45 L 70.86 47.39 L 71.34 47.51 L 71.77 47.76 L 72.09 48.14 L 72.27 48.6 L 72.29 49.1 L 72.15 49.58 L 71.87 49.99 L 71.47 50.29 L 71.47 50.29 L 67.86 52.12 L 64.05 54.55 L 60.46 57.53 L 58.23 60.24 L 59.08 63.91 L 62.51 64.29 L 66.64 62.91 L 70.37 59.47 L 72.69 53.85 L 73.1 47.47 L 71.52 41.38 L 68.21 36.55 L 64.21 34.18 L 60.55 33.78 L 56.34 36.58 L 58.58 31.66 L 60.03 23.71 L 59.49 13.7 L 57.7 6.19 L 53.9 2.76 L 52.9 7.49 L 52.08 14.19 L 52.13 23.87 L 52.58 33.94 L 52.92 43.77 L 53.02 53.66 L 52.85 60.28 L 52.4 65.71 L 52.37 66.07 L 52.25 66.4 L 52.07 66.7 L 51.81 66.94 L 51.5 67.12 L 51.16 67.23 L 50.81 67.24 L 50.46 67.16 L 50.14 67.02 L 49.86 66.79 L 49.65 66.51 L 49.51 66.18 L 49.45 65.83 L 49.51 63.49 L 49.25 57.63 L 48.99 48.95 L 48.74 38.35 L 48.54 26.94 L 48.46 17.05 L 48.35 9 L 48.4 8.6 L 48.54 8.23 L 48.77 7.91 L 49.06 7.64 L 49.42 7.46 L 49.8 7.36 L 50.2 7.36 L 50.58 7.46 L 50.94 7.64 L 51.23 7.91 L 51.46 8.23 L 51.6 8.6 L 51.65 9 L 51.65 9" fill="#ffffff" stroke="#ffffff" stroke-miterlimit="10" pointer-events="all"/></g><g><path d="M 70.27 63.27 L 72.91 63.62 L 76.17 62.35 L 80.77 59.61 L 85.53 55.15 L 89.54 49.92 L 91.93 45.4 L 93.67 43.31 L 90.14 48.48 L 88.49 53.47 L 88.19 59.09 L 89.52 63.93 L 91.72 66.94 L 95.48 66.27 L 96.66 63.8 L 97.86 60.28 L 98.49 56.73 L 99.02 53.53 L 100.57 48.96 L 102.31 47.14 L 106.26 44.86 L 109.66 45.1 L 111.74 50.54 L 111.57 54.35 L 112.05 58.4 L 113.29 61.92 L 114.97 64.11 L 118.08 66.53 L 118.58 67 L 118.9 67.59 L 119.01 68.26 L 118.9 68.93 L 118.58 69.53 L 118.1 70 L 117.48 70.28 L 116.81 70.36 L 116.15 70.22 L 115.56 69.87 L 115.12 69.35 L 114.87 68.72 L 114.83 68.05 L 115.01 67.39 L 115.39 66.83 L 115.93 66.42 L 116.57 66.2 L 117.25 66.2 L 117.89 66.41 L 118.43 66.82 L 118.81 67.38 L 118.99 68.04 L 118.96 68.71 L 118.71 69.34 L 118.27 69.86 L 117.69 70.21 L 117.03 70.36 L 116.36 70.29 L 115.74 70 L 115.75 70 L 111.71 66.46 L 109.58 63.33 L 107.94 59.06 L 107.04 54.27 L 106.51 49.62 L 104.03 51 L 102.6 54.19 L 101.95 57.38 L 101.15 61.42 L 99.65 65.61 L 97.18 69.11 L 93.57 70.42 L 89.6 68.82 L 86.81 64.74 L 85.23 59 L 85.49 52.56 L 87.22 46.79 L 89.78 42.45 L 92.14 40.83 L 95.05 42.42 L 94.42 46.65 L 91.87 51.66 L 87.66 57.36 L 82.52 62.38 L 77.36 65.72 L 72.55 67.24 L 69.73 66.73 L 69.32 66.61 L 68.96 66.4 L 68.65 66.11 L 68.43 65.76 L 68.29 65.36 L 68.25 64.94 L 68.32 64.52 L 68.48 64.13 L 68.74 63.79 L 69.06 63.53 L 69.44 63.35 L 69.85 63.26 L 70.27 63.27 L 70.27 63.27" fill="#ffffff" stroke="#ffffff" stroke-miterlimit="10" pointer-events="all"/></g><g><path d="M 116.74 66.66 L 119.29 64.22 L 121.12 60.91 L 122.89 56.69 L 124.42 52.07 L 125.42 48.21 L 127.02 45.26 L 129.84 46.26 L 130.31 52.14 L 130.61 56.95 L 131.41 61.47 L 132.7 64.83 L 135.56 62.73 L 137.21 59.75 L 138.82 56.11 L 140.05 52.93 L 140.95 50.4 L 141.57 49.16 L 141.8 48.72 L 142.14 48.35 L 142.54 48.08 L 143.01 47.9 L 143.5 47.85 L 143.98 47.91 L 144.45 48.09 L 144.85 48.37 L 145.17 48.74 L 145.4 49.18 L 145.52 49.66 L 145.51 50.16 L 145.4 50.64 L 145.8 53.73 L 145.92 57.4 L 146.59 60.92 L 148.82 62.65 L 151.36 59.97 L 153.57 55.72 L 153.52 55.87 L 153.8 55.41 L 154.2 55.03 L 154.67 54.75 L 155.19 54.6 L 155.74 54.57 L 156.28 54.68 L 156.77 54.9 L 157.19 55.25 L 157.53 55.68 L 157.74 56.18 L 157.84 56.72 L 157.79 57.27 L 157.62 57.79 L 158.42 60.38 L 161.38 63.32 L 165.66 62.17 L 167.13 59.95 L 167.61 57.22 L 167.11 54.67 L 163.12 55.32 L 161.39 58.16 L 160.71 61.75 L 161.77 64.69 L 164.12 66.42 L 167.25 66.74 L 170.63 65.55 L 173.61 63.31 L 175.6 59.63 L 176.64 55.48 L 176.75 51.84 L 176.19 48.76 L 175.6 45.04 L 178.16 41.85 L 177.66 41.43 L 177.34 40.86 L 177.21 40.22 L 177.28 39.57 L 177.57 38.98 L 178.03 38.51 L 178.6 38.21 L 179.25 38.12 L 179.9 38.23 L 180.47 38.55 L 180.91 39.03 L 181.18 39.63 L 181.24 40.28 L 181.09 40.92 L 180.75 41.47 L 180.24 41.89 L 179.63 42.12 L 178.98 42.14 L 178.34 41.96 L 177.81 41.59 L 177.42 41.06 L 177.22 40.43 L 177.23 39.78 L 177.45 39.16 L 177.86 38.65 L 178.4 38.29 L 179.03 38.13 L 179.69 38.17 L 180.29 38.42 L 180.29 38.42 L 179.4 45.08 L 179.53 48.27 L 179.96 51.99 L 179.67 56.23 L 178.44 61.16 L 175.74 65.98 L 171.75 68.89 L 166.85 70.33 L 161.99 69.37 L 158.4 66.09 L 156.98 61.28 L 157.91 56.1 L 160.64 51.86 L 164.65 49.61 L 168.69 50.4 L 171.17 53.82 L 171.73 58.02 L 170.63 62.38 L 167.73 66 L 163.55 67.76 L 159.21 67.27 L 155.73 64.85 L 153.88 61.27 L 153.37 58.39 L 153.52 55.87 L 153.8 55.41 L 154.2 55.03 L 154.67 54.75 L 155.19 54.6 L 155.74 54.57 L 156.28 54.68 L 156.77 54.9 L 157.19 55.25 L 157.53 55.68 L 157.74 56.18 L 157.84 56.72 L 157.79 57.27 L 157.62 57.79 L 156.33 59.96 L 154.58 62.88 L 151.76 65.65 L 148.03 66.58 L 144.76 65.03 L 142.73 61.84 L 141.82 57.6 L 141.6 53.83 L 141.57 49.16 L 141.8 48.72 L 142.14 48.35 L 142.54 48.08 L 143 47.9 L 143.5 47.85 L 143.98 47.91 L 144.45 48.09 L 144.85 48.37 L 145.17 48.74 L 145.4 49.18 L 145.52 49.66 L 145.51 50.16 L 145.4 50.64 L 144.61 51.82 L 143.57 54.32 L 142.24 57.57 L 140.56 61.62 L 138.52 65.22 L 135.83 68 L 132.89 68.59 L 129.73 66.17 L 128.24 62.11 L 127.2 57.27 L 126.57 52.22 L 126.49 46.78 L 128.52 49.05 L 127.41 52.99 L 126.02 57.92 L 124.27 62.66 L 121.88 66.9 L 119.27 69.34 L 118.91 69.6 L 118.5 69.77 L 118.06 69.84 L 117.61 69.8 L 117.2 69.66 L 116.82 69.42 L 116.52 69.09 L 116.3 68.71 L 116.18 68.28 L 116.16 67.84 L 116.25 67.4 L 116.45 67 L 116.74 66.66 L 116.74 66.66" fill="#ffffff" stroke="#ffffff" stroke-miterlimit="10" pointer-events="all"/></g></g></svg>