<svg xmlns="http://www.w3.org/2000/svg" xmlns:xlink="http://www.w3.org/1999/xlink" version="1.1" width="89px" height="117px" viewBox="-0.5 -0.5 89 117"><defs/><g><g><path d="M 17.83 9.34 L 17.49 11.66 L 17.01 15.39 L 16.34 20.68 L 15.86 26.08 L 15.73 30.22 L 15.65 35.81 L 15.56 36.34 L 15.3 36.81 L 14.91 37.17 L 14.42 37.38 L 13.89 37.43 L 13.37 37.31 L 12.92 37.03 L 12.58 36.61 L 12.39 36.11 L 12.37 35.58 L 12.52 35.07 L 12.83 34.63 L 13.26 34.32 L 13.76 34.16 L 14.3 34.17 L 14.8 34.34 L 15.22 34.67 L 15.51 35.12 L 15.65 35.64 L 15.61 36.17 L 15.4 36.66 L 15.05 37.06 L 14.59 37.33 L 14.06 37.44 L 13.54 37.37 L 13.06 37.14 L 12.67 36.76 L 12.43 36.29 L 12.35 35.76 L 12.35 35.76 L 12.49 30.1 L 12.66 25.87 L 12.88 20.37 L 13.19 14.92 L 13.64 10.94 L 14.17 8.66 L 14.3 8.23 L 14.54 7.84 L 14.86 7.53 L 15.24 7.3 L 15.67 7.16 L 16.12 7.14 L 16.56 7.22 L 16.97 7.41 L 17.33 7.69 L 17.6 8.04 L 17.78 8.45 L 17.86 8.89 L 17.83 9.34 L 17.83 9.34" fill="rgb(0, 0, 0)" stroke="rgb(0, 0, 0)" stroke-miterlimit="10" pointer-events="all"/></g><g><path d="M 15.03 10.51 L 16.13 6.48 L 17.92 3.2 L 20.78 0.96 L 24.25 0.43 L 27.37 2.27 L 28.8 6.14 L 28.28 10.36 L 26.72 14.13 L 24.62 17.23 L 22.76 18.98 L 22.18 19.26 L 21.73 19.56 L 21.22 19.74 L 20.68 19.79 L 20.15 19.72 L 19.65 19.52 L 19.21 19.2 L 18.86 18.79 L 18.62 18.31 L 18.5 17.78 L 18.51 17.24 L 18.65 16.72 L 18.91 16.25 L 19.28 15.85 L 22.36 14.39 L 25.51 14.37 L 28.77 15.24 L 32.04 17.85 L 33.76 21.74 L 33.92 25.98 L 32.25 30.4 L 29.16 33.84 L 25.13 35.87 L 21.02 36.71 L 14.6 35.57 L 14.01 35.25 L 13.56 34.76 L 13.28 34.16 L 13.22 33.49 L 13.37 32.83 L 13.72 32.27 L 14.23 31.84 L 14.86 31.59 L 15.53 31.56 L 16.17 31.75 L 16.72 32.13 L 17.12 32.67 L 17.33 33.3 L 17.32 33.97 L 17.1 34.6 L 16.69 35.13 L 16.13 35.5 L 15.49 35.68 L 14.82 35.64 L 14.2 35.38 L 13.69 34.95 L 13.35 34.37 L 13.22 33.71 L 13.29 33.05 L 13.58 32.44 L 14.05 31.96 L 14.64 31.65 L 15.3 31.55 L 15.96 31.66 L 15.96 31.66 L 20.31 32.77 L 23.41 32.21 L 26.2 30.97 L 28.33 28.75 L 29.49 25.93 L 28.9 21.13 L 25.33 19.01 L 22.18 19.26 L 21.73 19.56 L 21.22 19.74 L 20.68 19.79 L 20.15 19.72 L 19.65 19.52 L 19.21 19.2 L 18.86 18.79 L 18.62 18.31 L 18.5 17.78 L 18.51 17.24 L 18.65 16.72 L 18.91 16.25 L 19.28 15.85 L 21.16 14.78 L 22.81 12.48 L 24.01 9.65 L 24.56 7.12 L 23.93 4.43 L 21.25 5.31 L 19.89 7.47 L 18.97 11.49 L 18.79 11.95 L 18.51 12.35 L 18.15 12.67 L 17.71 12.9 L 17.24 13.01 L 16.75 13.01 L 16.27 12.89 L 15.84 12.67 L 15.48 12.34 L 15.2 11.94 L 15.03 11.48 L 14.97 10.99 L 15.03 10.51 L 15.03 10.51" fill="rgb(0, 0, 0)" stroke="rgb(0, 0, 0)" stroke-miterlimit="10" pointer-events="all"/></g><g><path d="M 33.86 25.07 L 37.71 24.81 L 40.5 23.54 L 43.1 21.48 L 45.04 18.85 L 45.85 16.33 L 43.79 22.12 L 43.47 26.42 L 44.49 30.24 L 46.48 32.27 L 49.63 32.17 L 50.11 29.57 L 49.04 26.14 L 48.31 22.21 L 49.49 19.99 L 51.91 18.89 L 55.82 18.54 L 60.81 18.44 L 61.63 18.57 L 62.36 18.96 L 62.94 19.56 L 63.28 20.31 L 63.38 21.13 L 63.2 21.94 L 62.78 22.65 L 62.15 23.19 L 61.38 23.5 L 60.55 23.55 L 59.76 23.33 L 59.07 22.86 L 58.57 22.21 L 58.3 21.42 L 58.29 20.6 L 58.56 19.81 L 59.05 19.15 L 59.74 18.68 L 60.53 18.46 L 61.36 18.5 L 62.14 18.8 L 62.77 19.34 L 63.2 20.05 L 63.38 20.85 L 63.29 21.68 L 62.95 22.43 L 62.38 23.03 L 61.65 23.42 L 60.83 23.56 L 60.83 23.56 L 55.98 23.55 L 53.17 24.58 L 54.06 27.3 L 54.22 30.33 L 53.3 33.43 L 50.95 35.68 L 47.53 36.23 L 44.01 34.69 L 41.26 31.27 L 39.91 26.29 L 40.11 20.75 L 41.98 15.9 L 47.57 13.17 L 49.5 17.32 L 48.08 21.09 L 45.44 24.46 L 42.01 27.05 L 38.05 28.61 L 34.14 28.94 L 33.68 28.91 L 33.23 28.78 L 32.82 28.54 L 32.49 28.22 L 32.24 27.82 L 32.1 27.38 L 32.06 26.91 L 32.14 26.45 L 32.33 26.02 L 32.61 25.65 L 32.97 25.35 L 33.4 25.16 L 33.86 25.07 L 33.86 25.07" fill="rgb(0, 0, 0)" stroke="rgb(0, 0, 0)" stroke-miterlimit="10" pointer-events="all"/></g><g><path d="M 65.02 21.54 L 63.96 25.26 L 63.72 28.49 L 64.17 31.11 L 66.72 29 L 68.13 26.71 L 69.48 24.28 L 71.52 20.32 L 72.01 19.75 L 72.35 19.28 L 72.79 18.91 L 73.31 18.66 L 73.87 18.53 L 74.45 18.55 L 75.01 18.7 L 75.51 18.98 L 75.94 19.37 L 76.25 19.86 L 76.44 20.4 L 76.5 20.98 L 76.41 21.55 L 76.19 22.08 L 76.69 26.49 L 79.84 23.73 L 81.19 21.09 L 81.5 20.56 L 81.93 20.12 L 82.45 19.8 L 83.03 19.61 L 83.65 19.57 L 84.25 19.67 L 84.81 19.92 L 85.3 20.29 L 85.68 20.77 L 85.94 21.32 L 86.06 21.92 L 86.03 22.54 L 85.85 23.12 L 87.37 25.44 L 87.63 26.24 L 87.63 27.09 L 87.36 27.89 L 86.85 28.56 L 86.14 29.03 L 85.33 29.25 L 84.49 29.2 L 83.7 28.89 L 83.06 28.34 L 82.63 27.62 L 82.45 26.79 L 82.54 25.95 L 82.9 25.18 L 83.48 24.57 L 84.23 24.18 L 85.06 24.05 L 85.9 24.19 L 86.64 24.58 L 87.22 25.2 L 87.57 25.97 L 87.66 26.81 L 87.48 27.63 L 87.04 28.35 L 86.4 28.9 L 85.61 29.21 L 84.77 29.25 L 83.95 29.02 L 83.26 28.55 L 82.75 27.87 L 82.75 27.87 L 81.56 23.79 L 81.19 21.09 L 81.5 20.56 L 81.93 20.12 L 82.45 19.8 L 83.03 19.61 L 83.65 19.57 L 84.25 19.67 L 84.81 19.92 L 85.3 20.29 L 85.68 20.77 L 85.94 21.32 L 86.06 21.92 L 86.03 22.54 L 85.85 23.12 L 84.23 26 L 82.71 28.92 L 80.46 31.66 L 77.57 33.18 L 74.64 32.61 L 72.32 29.53 L 71.84 26.46 L 72.03 22.33 L 72.01 19.75 L 72.35 19.28 L 72.79 18.91 L 73.31 18.66 L 73.87 18.53 L 74.45 18.55 L 75.01 18.7 L 75.51 18.98 L 75.94 19.37 L 76.25 19.86 L 76.44 20.4 L 76.5 20.98 L 76.41 21.55 L 76.19 22.08 L 74.67 24.22 L 73.44 26.48 L 71.97 29.11 L 70.14 32 L 67.8 34.45 L 64.8 35.69 L 61.98 34.8 L 60.16 31.79 L 59.7 28.19 L 60.03 24.21 L 60.98 20.46 L 61.17 19.99 L 61.47 19.58 L 61.85 19.25 L 62.3 19.03 L 62.79 18.92 L 63.3 18.93 L 63.78 19.06 L 64.23 19.3 L 64.59 19.65 L 64.87 20.07 L 65.04 20.54 L 65.09 21.04 L 65.02 21.54 L 65.02 21.54" fill="rgb(0, 0, 0)" stroke="rgb(0, 0, 0)" stroke-miterlimit="10" pointer-events="all"/></g><g><path d="M 9.56 63.49 L 7.73 68.92 L 6.24 75.82 L 4.87 83.93 L 3.83 91.67 L 3.09 97.97 L 3.05 101.52 L 3.52 102.44 L 3.46 102.8 L 3.31 103.14 L 3.09 103.44 L 2.8 103.67 L 2.46 103.83 L 2.1 103.9 L 1.73 103.89 L 1.38 103.78 L 1.05 103.6 L 0.79 103.34 L 0.59 103.02 L 0.47 102.67 L 0.45 102.3 L 2.42 95.43 L 3.69 89.44 L 5.12 82.29 L 6.75 74.63 L 8.63 67.85 L 11.05 61.85 L 13.95 57.38 L 17.78 55.41 L 20.77 57.07 L 22.17 61.74 L 21.62 67.91 L 19.86 74.32 L 17.3 79.74 L 14.76 83.72 L 12.83 86.16 L 12.24 87 L 11.94 87.27 L 11.59 87.46 L 11.2 87.56 L 10.81 87.56 L 10.42 87.46 L 10.07 87.28 L 9.77 87.02 L 9.54 86.7 L 9.39 86.33 L 9.34 85.93 L 9.39 85.53 L 9.53 85.16 L 9.75 84.83 L 12.38 84.85 L 17.2 88.83 L 19.72 93.38 L 21.2 99.31 L 21.05 105.25 L 19.11 110.37 L 15.78 113.97 L 12.07 115.97 L 8.23 115.54 L 5.3 113.31 L 4.01 109.84 L 4.84 105.5 L 7.58 102.03 L 11.61 99.42 L 16.21 97.65 L 16.76 97.52 L 17.31 97.58 L 17.82 97.82 L 18.23 98.21 L 18.5 98.71 L 18.59 99.26 L 18.5 99.81 L 18.24 100.31 L 17.83 100.7 L 17.32 100.93 L 16.76 100.99 L 16.21 100.87 L 15.73 100.58 L 15.36 100.16 L 15.16 99.64 L 15.13 99.07 L 15.27 98.53 L 15.59 98.07 L 16.04 97.72 L 16.57 97.55 L 17.13 97.54 L 17.66 97.72 L 18.11 98.06 L 18.43 98.53 L 18.58 99.07 L 18.55 99.63 L 18.34 100.15 L 17.98 100.58 L 17.5 100.87 L 17.5 100.87 L 13.58 102.5 L 10.42 104.54 L 8.43 106.57 L 7.81 110.91 L 11.11 113.14 L 13.74 111.91 L 16.51 109.27 L 18.11 105.13 L 18.18 100.06 L 16.8 95 L 14.6 91.26 L 12.24 87 L 11.94 87.27 L 11.59 87.46 L 11.2 87.56 L 10.81 87.56 L 10.42 87.46 L 10.07 87.28 L 9.77 87.02 L 9.54 86.7 L 9.39 86.33 L 9.34 85.93 L 9.39 85.53 L 9.53 85.16 L 9.75 84.83 L 10.49 84.11 L 12.39 82.17 L 14.78 78.56 L 17.07 73.57 L 18.59 67.65 L 19.01 62.41 L 18.61 59.19 L 16.02 58.86 L 13.46 62.83 L 11.17 68.55 L 9.39 75.18 L 7.84 82.81 L 6.51 90.01 L 5.35 96.14 L 3.52 102.44 L 3.46 102.8 L 3.31 103.14 L 3.09 103.44 L 2.8 103.67 L 2.46 103.83 L 2.1 103.9 L 1.73 103.89 L 1.38 103.78 L 1.05 103.6 L 0.79 103.34 L 0.59 103.02 L 0.47 102.67 L 0.45 102.3 L 0.19 101.52 L 0.46 97.68 L 1.14 91.32 L 2.11 83.48 L 3.4 75.24 L 4.82 68 L 6.44 62.51 L 6.61 62.15 L 6.85 61.84 L 7.16 61.6 L 7.52 61.44 L 7.91 61.37 L 8.3 61.39 L 8.68 61.51 L 9.01 61.72 L 9.29 62 L 9.49 62.34 L 9.61 62.71 L 9.63 63.11 L 9.56 63.49 L 9.56 63.49" fill="rgb(0, 0, 0)" stroke="rgb(0, 0, 0)" stroke-miterlimit="10" pointer-events="all"/></g><g><path d="M 23.45 100.05 L 27.02 99.08 L 29.43 97.35 L 31.48 94.96 L 33 92.37 L 32.67 94.91 L 35.55 96.66 L 40.13 96.71 L 45.47 96.52 L 48.64 98.61 L 50.23 101.84 L 51.42 104.29 L 54.97 107.53 L 55.5 107.97 L 55.86 108.55 L 56.02 109.22 L 55.96 109.9 L 55.69 110.53 L 55.22 111.04 L 54.63 111.37 L 53.95 111.49 L 53.27 111.39 L 52.66 111.08 L 52.18 110.6 L 51.88 109.98 L 51.79 109.3 L 51.93 108.63 L 52.27 108.03 L 52.78 107.58 L 53.41 107.31 L 54.1 107.26 L 54.77 107.43 L 55.34 107.8 L 55.76 108.34 L 55.99 108.99 L 56.01 109.68 L 55.8 110.33 L 55.4 110.88 L 54.84 111.28 L 54.18 111.48 L 53.5 111.45 L 52.85 111.21 L 52.85 111.21 L 49.29 108.33 L 47.85 105.93 L 46.71 103.26 L 45.04 99.71 L 40.25 100.51 L 35.19 100.85 L 30.36 100.26 L 28.04 98.2 L 29.26 92.11 L 31.9 89.22 L 34.31 88.56 L 37.08 90.77 L 36.43 94.39 L 34.45 97.57 L 31.69 100.62 L 28.16 102.9 L 24.55 103.95 L 24.06 104.03 L 23.58 103.98 L 23.12 103.82 L 22.7 103.56 L 22.37 103.2 L 22.13 102.78 L 22 102.31 L 21.98 101.82 L 22.08 101.34 L 22.3 100.9 L 22.61 100.53 L 23 100.24 L 23.45 100.05 L 23.45 100.05" fill="rgb(0, 0, 0)" stroke="rgb(0, 0, 0)" stroke-miterlimit="10" pointer-events="all"/></g><g><path d="M 57.39 109.4 L 65.63 106.44 L 74.39 108.24 L 74.84 108.42 L 75.21 108.73 L 75.46 109.14 L 75.56 109.62 L 75.51 110.1 L 75.31 110.53 L 74.98 110.89 L 74.55 111.11 L 74.07 111.19 L 73.6 111.11 L 73.17 110.89 L 72.83 110.54 L 72.63 110.1 L 72.58 109.62 L 72.68 109.14 L 72.93 108.73 L 73.3 108.42 L 73.75 108.24 L 74.23 108.21 L 74.7 108.34 L 75.1 108.61 L 75.39 109 L 75.55 109.46 L 75.55 109.94 L 75.39 110.4 L 75.1 110.78 L 74.7 111.05 L 74.23 111.18 L 73.75 111.16 L 73.75 111.16 L 66.47 109.43 L 58.61 112.6 L 58.21 112.7 L 57.8 112.7 L 57.39 112.6 L 57.03 112.41 L 56.72 112.14 L 56.48 111.8 L 56.34 111.41 L 56.29 111 L 56.34 110.59 L 56.48 110.2 L 56.71 109.86 L 57.02 109.59 L 57.39 109.4 L 57.39 109.4" fill="rgb(0, 0, 0)" stroke="rgb(0, 0, 0)" stroke-miterlimit="10" pointer-events="all"/></g><g><path d="M 58.97 102.18 L 59.34 102.7 L 59.53 103.31 L 59.51 103.95 L 59.29 104.55 L 58.89 105.04 L 58.35 105.39 L 57.74 105.54 L 57.1 105.49 L 56.51 105.24 L 56.04 104.81 L 55.72 104.25 L 55.6 103.63 L 55.69 103 L 55.97 102.42 L 56.42 101.97 L 57 101.69 L 57.63 101.6 L 58.26 101.72 L 58.81 102.04 L 59.24 102.51 L 59.49 103.1 L 59.54 103.74 L 59.39 104.35 L 59.04 104.89 L 58.55 105.29 L 57.95 105.51 L 57.31 105.53 L 56.7 105.34 L 56.18 104.97 L 56.18 104.97 L 55.73 104.72 L 55.36 104.36 L 55.08 103.93 L 54.91 103.44 L 54.87 102.93 L 54.95 102.42 L 55.14 101.95 L 55.45 101.54 L 55.84 101.21 L 56.31 100.98 L 56.81 100.88 L 57.32 100.89 L 57.82 101.03" fill="rgb(0, 0, 0)" stroke="rgb(0, 0, 0)" stroke-miterlimit="10" pointer-events="all"/></g></g></svg>