<svg xmlns="http://www.w3.org/2000/svg" xmlns:xlink="http://www.w3.org/1999/xlink" version="1.1" width="133px" height="72px" viewBox="-0.5 -0.5 133 72"><defs/><g><g><path d="M 51.12 16.19 L 50.07 14.65 L 47.59 12.08 L 45.66 10.26 L 43.46 8.49 L 40.99 7.25 L 37.75 6.45 L 35.07 6.01 L 32.21 5.94 L 28.79 6.59 L 25.32 7.5 L 22.29 8.44 L 19.18 9.68 L 16.53 10.95 L 13.87 12.43 L 11.35 14.1 L 9.8 16.42 L 8.91 18.99 L 7.82 21.65 L 7.02 24.41 L 6.28 27.75 L 6.19 30.31 L 6.2 32.97 L 6.22 35.57 L 6.23 38.51 L 7.15 42.01 L 8.41 45.12 L 10.11 47.92 L 11.91 49.98 L 14.7 52.13 L 17.29 53.78 L 19.87 54.67 L 23.94 54.85 L 27.86 54.94 L 30.45 54.83 L 30.9 51.1 L 30.95 47.76 L 30.64 45.22 L 30.02 42.79 L 29.95 42.06 L 30.07 41.32 L 30.35 40.64 L 30.79 40.04 L 31.36 39.56 L 32.03 39.24 L 32.75 39.08 L 33.49 39.1 L 34.21 39.31 L 34.86 39.67 L 35.4 40.18 L 35.81 40.8 L 36.04 41.5 L 36.11 44.73 L 36.17 48.44 L 36.58 53.22 L 37.67 56.87 L 39 59.19 L 41.06 61.07 L 45.9 63.82 L 48.87 64.99 L 52.12 65.82 L 55.23 66.18 L 58.16 66.2 L 61.48 65.43 L 62.25 62.56 L 62.33 59.87 L 62.32 56.66 L 62.28 53.27 L 61.96 49.13 L 61.11 44.87 L 60.05 41.52 L 63.03 40.9 L 63.03 44.28 L 62.94 48.59 L 63.69 53.06 L 65.32 56.75 L 67.45 59.35 L 69.86 61.03 L 73.13 62.19 L 77.72 63.11 L 82.16 62.88 L 85.72 61.8 L 86.21 58.33 L 85.84 54.36 L 84.6 49.94 L 83.75 47.51 L 81.33 43.82 L 77.82 40.76 L 75.62 39.25 L 72.99 37.78 L 69.97 36.42 L 67.08 35.44 L 64.34 34.58 L 61.01 34.03 L 59.17 37.84 L 58.87 41.62 L 59.63 45.28 L 61.19 48.7 L 63 51.29 L 65.17 53.41 L 67.53 54.75 L 70.63 56.17 L 74.3 57.62 L 78.78 59.12 L 81.21 59.9 L 85.83 60.87 L 88.49 61.21 L 91.08 61.36 L 93.62 61.43 L 97.76 60.88 L 101.14 59.02 L 103.18 56.21 L 104.14 52.48 L 104.23 48.34 L 103.63 43.66 L 103.04 41.08 L 101.3 37.21 L 99.04 34.09 L 96.97 31.88 L 99.7 30.42 L 100.45 33.38 L 101.6 37.75 L 103.26 42.28 L 105.13 45.52 L 107.6 48.47 L 110.89 51.09 L 114.88 53.14 L 118.72 54.12 L 121.51 53.83 L 124.04 52.77 L 125.69 50.2 L 125.88 46.65 L 124.55 41.91 L 123.22 39.53 L 121.67 37.01 L 120.15 34.82 L 118.22 32.86 L 115.88 30.86 L 113.23 28.86 L 110 26.86 L 106.72 25.32 L 103.47 24.27 L 100.37 23.72 L 96.64 23.85 L 97.62 27.26 L 98.39 31.16 L 99.87 34.57 L 100.13 35.35 L 100.14 36.18 L 99.88 36.96 L 99.39 37.63 L 98.71 38.1 L 97.92 38.33 L 97.09 38.29 L 96.31 37.99 L 95.68 37.46 L 95.25 36.76 L 95.06 35.95 L 95.14 35.12 L 95.49 34.37 L 96.05 33.77 L 96.77 33.37 L 97.59 33.23 L 98.41 33.36 L 99.14 33.74 L 99.72 34.33 L 100.08 35.08 L 100.17 35.9 L 100 36.72 L 99.58 37.43 L 98.96 37.97 L 98.18 38.28 L 97.35 38.34 L 96.56 38.12 L 95.87 37.66 L 95.37 37.01 L 95.37 37.01 L 93.03 29.9 L 92.59 25.64 L 92.84 22.74 L 94.62 20.09 L 98.25 19.48 L 101.09 19.69 L 104.7 20.35 L 108.44 21.51 L 112.16 23.12 L 115.92 25.17 L 118.88 27.26 L 121.6 29.47 L 124.17 32.02 L 125.81 34.35 L 127.59 37.04 L 129.4 40.16 L 130.53 43.21 L 131.26 46.42 L 131.34 49.46 L 130.75 52.31 L 128.09 56.41 L 124.39 58.43 L 120.04 59.34 L 115.31 58.71 L 112.8 57.9 L 110.27 56.79 L 107.79 55.36 L 105.67 53.83 L 103.66 52.04 L 100.7 48.46 L 98.34 44.27 L 97.34 41.84 L 96.38 39.25 L 95.02 34.5 L 94.46 30.94 L 95.62 27.64 L 100.6 28.15 L 102.98 30.88 L 105.79 34.93 L 106.98 37.33 L 107.92 39.91 L 108.6 42.72 L 109.17 45.65 L 109.35 48.22 L 109.41 50.92 L 109.16 53.49 L 108.58 56.21 L 107.59 58.76 L 106 61.3 L 103.81 63.34 L 101.43 64.76 L 98.81 65.83 L 96.1 66.36 L 93.51 66.48 L 90.83 66.44 L 87.91 66.33 L 84.99 66.04 L 82.29 65.61 L 79.66 64.99 L 77.17 64.27 L 74.72 63.53 L 70.33 62 L 66.61 60.41 L 63.23 58.6 L 60.12 56.08 L 57.5 52.86 L 55.46 48.96 L 54.55 46.62 L 53.95 44.17 L 53.65 41.59 L 54.12 36.55 L 55.69 32.03 L 58.42 29.49 L 61.7 29.29 L 65.72 30.19 L 68.5 31.07 L 71.8 32.12 L 75.28 33.51 L 78.39 35.12 L 80.95 36.82 L 83.35 38.71 L 85.45 40.78 L 87.17 43.13 L 88.62 45.72 L 89.6 48.33 L 90.51 51.05 L 91.14 53.61 L 91.51 56.22 L 91.45 60.93 L 90.88 63.38 L 89.46 65.45 L 85.38 67.42 L 82.75 68.03 L 80 68.34 L 76.96 68.33 L 74.13 67.94 L 71.62 67.36 L 66.96 65.58 L 63.54 62.99 L 60.61 59.16 L 59.4 56.79 L 58.48 54.26 L 57.83 51.51 L 57.45 48.77 L 57.33 46.04 L 57.49 43.31 L 58.5 39.12 L 60.79 36.78 L 65.21 39.91 L 66.26 43.54 L 66.92 46.09 L 67.57 50.92 L 67.7 55 L 67.63 58.3 L 67.49 61.86 L 66.79 65.51 L 64.84 68.71 L 60.94 70.52 L 58.16 70.81 L 54.77 70.82 L 51.08 70.5 L 47.17 69.74 L 43.45 68.53 L 40.53 67.13 L 37.56 65.55 L 35.5 63.88 L 33.14 60.56 L 31.56 56.6 L 30.86 54.08 L 30.4 51.39 L 29.91 46.46 L 30.02 42.8 L 29.95 42.06 L 30.07 41.32 L 30.35 40.64 L 30.79 40.04 L 31.36 39.56 L 32.03 39.24 L 32.75 39.08 L 33.49 39.1 L 34.21 39.31 L 34.86 39.67 L 35.4 40.18 L 35.81 40.8 L 36.04 41.5 L 36.41 43.02 L 36.89 45.91 L 37.06 49.52 L 37.03 52.91 L 36.52 56.43 L 34.39 59.43 L 31.16 60.88 L 27.85 61.06 L 23.86 61.11 L 20.19 61.08 L 16.93 60.53 L 14.23 59.42 L 11.83 58.01 L 9.84 56.52 L 7.82 54.99 L 5.68 52.97 L 4.01 50.32 L 2.66 48.12 L 1.44 45.49 L 0.51 42.31 L -0.23 39.38 L -0.23 36.54 L -0.22 33.84 L -0.18 30.93 L -0.07 27.89 L 0.34 25.23 L 1.16 21.7 L 2.51 18.38 L 3.45 15.99 L 4.52 13.16 L 6.09 10.9 L 7.93 9.17 L 10.74 7.28 L 13.62 5.65 L 16.08 4.45 L 19.04 3.38 L 22.07 2.32 L 25.53 1.3 L 28.79 0.43 L 31.41 0.07 L 34.64 0.21 L 37.52 0.63 L 40.19 1.2 L 43.04 2.17 L 45.78 3.66 L 48.03 5.54 L 50.21 7.71 L 51.98 9.67 L 53.92 12.19 L 54.87 13.81 L 55.11 14.29 L 55.21 14.82 L 55.2 15.35 L 55.05 15.87 L 54.78 16.33 L 54.41 16.72 L 53.96 17 L 53.45 17.17 L 52.91 17.22 L 52.38 17.14 L 51.9 16.93 L 51.46 16.61 L 51.12 16.19 L 51.12 16.19" fill="rgb(0, 0, 0)" stroke="rgb(0, 0, 0)" stroke-miterlimit="10" pointer-events="all"/></g></g></svg>