<?xml version="1.0" encoding="UTF-8"?>
<svg xmlns="http://www.w3.org/2000/svg" width="150" height="400">
  <path fill="none" stroke="#000" d="M12.5 12.5h125v125h-125z"/>
  <path d="M12.5 37.5h125m-125 25h125m-125 25h125m-125 25h125m-100-100v125m25-125v125m25-125v125m25-125v125" stroke="#000"/>
	<text x="25" y="31.25" text-anchor="middle" font-family="sans-serif" font-size="20">0</text>
	<text x="50" y="31.25" text-anchor="middle" font-family="sans-serif" font-size="20">0</text>
	<text x="75" y="31.25" text-anchor="middle" font-family="sans-serif" font-size="20">1</text>
	<text x="100" y="31.25" text-anchor="middle" font-family="sans-serif" font-size="20">2</text>
	<text x="125" y="31.25" text-anchor="middle" font-family="sans-serif" font-size="20">3</text>
	<text x="25" y="56.25" text-anchor="middle" font-family="sans-serif" font-size="20">0</text>
	<text x="50" y="56.25" text-anchor="middle" font-family="sans-serif" font-size="20">1</text>
	<text x="75" y="56.25" text-anchor="middle" font-family="sans-serif" font-size="20">2</text>
	<text x="100" y="56.25" text-anchor="middle" font-family="sans-serif" font-size="20">3</text>
	<text x="125" y="56.25" text-anchor="middle" font-family="sans-serif" font-size="20">2</text>
	<text x="25" y="81.25" text-anchor="middle" font-family="sans-serif" font-size="20">1</text>
	<text x="50" y="81.25" text-anchor="middle" font-family="sans-serif" font-size="20">2</text>
	<text x="75" y="81.25" text-anchor="middle" font-family="sans-serif" font-size="20">3</text>
	<text x="100" y="81.25" text-anchor="middle" font-family="sans-serif" font-size="20">2</text>
	<text x="125" y="81.25" text-anchor="middle" font-family="sans-serif" font-size="20">1</text>
	<text x="25" y="106.25" text-anchor="middle" font-family="sans-serif" font-size="20">2</text>
	<text x="50" y="106.25" text-anchor="middle" font-family="sans-serif" font-size="20">3</text>
	<text x="75" y="106.25" text-anchor="middle" font-family="sans-serif" font-size="20">2</text>
	<text x="100" y="106.25" text-anchor="middle" font-family="sans-serif" font-size="20">1</text>
	<text x="125" y="106.25" text-anchor="middle" font-family="sans-serif" font-size="20">0</text>
	<text x="25" y="131.25" text-anchor="middle" font-family="sans-serif" font-size="20">3</text>
	<text x="50" y="131.25" text-anchor="middle" font-family="sans-serif" font-size="20">2</text>
	<text x="75" y="131.25" text-anchor="middle" font-family="sans-serif" font-size="20">1</text>
	<text x="100" y="131.25" text-anchor="middle" font-family="sans-serif" font-size="20">0</text>
	<text x="125" y="131.25" text-anchor="middle" font-family="sans-serif" font-size="20">0</text>

	<text x="45" y="168.75" text-anchor="middle" font-family="sans-serif" font-size="20">0 =</text>
  <path fill="red" stroke="#000" d="M62.5 150h25v25h-25z"/>
	<text x="45" y="193.75" text-anchor="middle" font-family="sans-serif" font-size="20">1 =</text>
  <path fill="#f0f" stroke="#000" d="M62.5 175h25v25h-25z"/>
	<text x="45" y="218.75" text-anchor="middle" font-family="sans-serif" font-size="20">2 =</text>
  <path fill="#00f" stroke="#000" d="M62.5 200h25v25h-25z"/>
	<text x="45" y="243.75" text-anchor="middle" font-family="sans-serif" font-size="20">3 =</text>
  <path fill="#0ff" stroke="#000" d="M62.5 225h25v25h-25z"/>

  <path fill="red" stroke="#000" d="M12.5 262.5h25v25h-25zM37.5 262.5h25v25h-25z"/>
  <path fill="#f0f" stroke="#000" d="M62.5 262.5h25v25h-25z"/>
  <path fill="#00f" stroke="#000" d="M87.5 262.5h25v25h-25z"/>
  <path fill="#0ff" stroke="#000" d="M112.5 262.5h25v25h-25z"/>
  <path fill="red" stroke="#000" d="M12.5 287.5h25v25h-25z"/>
  <path fill="#f0f" stroke="#000" d="M37.5 287.5h25v25h-25z"/>
  <path fill="#00f" stroke="#000" d="M62.5 287.5h25v25h-25z"/>
  <path fill="#0ff" stroke="#000" d="M87.5 287.5h25v25h-25z"/>
  <path fill="#00f" stroke="#000" d="M112.5 287.5h25v25h-25z"/>
  <path fill="#f0f" stroke="#000" d="M12.5 312.5h25v25h-25z"/>
  <path fill="#00f" stroke="#000" d="M37.5 312.5h25v25h-25z"/>
  <path fill="#0ff" stroke="#000" d="M62.5 312.5h25v25h-25z"/>
  <path fill="#00f" stroke="#000" d="M87.5 312.5h25v25h-25z"/>
  <path fill="#f0f" stroke="#000" d="M112.5 312.5h25v25h-25z"/>
  <path fill="#00f" stroke="#000" d="M12.5 337.5h25v25h-25z"/>
  <path fill="#0ff" stroke="#000" d="M37.5 337.5h25v25h-25z"/>
  <path fill="#00f" stroke="#000" d="M62.5 337.5h25v25h-25z"/>
  <path fill="#f0f" stroke="#000" d="M87.5 337.5h25v25h-25z"/>
  <path fill="red" stroke="#000" d="M112.5 337.5h25v25h-25z"/>
  <path fill="#0ff" stroke="#000" d="M12.5 362.5h25v25h-25z"/>
  <path fill="#00f" stroke="#000" d="M37.5 362.5h25v25h-25z"/>
  <path fill="#f0f" stroke="#000" d="M62.5 362.5h25v25h-25z"/>
  <path fill="red" stroke="#000" d="M87.5 362.5h25v25h-25zM112.5 362.5h25v25h-25z"/>
</svg>
